<svg xmlns="http://www.w3.org/2000/svg" viewBox="0 0 240 240" role="img" aria-label="Smiling illustrated portrait">
  <defs><linearGradient id="bg" x2="1" y2="1"><stop stop-color="#fae2c6"/><stop offset="1" stop-color="#ebb1ae"/></linearGradient></defs>
  <rect width="240" height="240" fill="url(#bg)"/>
  <circle cx="120" cy="255" r="97" fill="#5968a0"/>
  <path d="M53 114C53 50 79 25 124 25c49 0 68 35 68 91v48H53Z" fill="#322b43"/>
  <ellipse cx="120" cy="121" rx="56" ry="70" fill="#bd765d"/>
  <path d="M63 112c-5-41 18-77 59-79 34-2 57 26 58 66-30-2-57-15-76-31-9 21-24 33-41 44Z" fill="#322b43"/>
  <path d="M94 121h13m28 0h13" stroke="#352d42" stroke-width="5" stroke-linecap="round"/>
  <path d="M108 149q13 12 26 0" fill="none" stroke="#693d48" stroke-width="4" stroke-linecap="round"/>
  <path d="M60 237c11-41 33-61 60-61s50 20 61 61" fill="#6979b0"/>
</svg>
